<svg version="1.1" id="Layer_1" xmlns="http://www.w3.org/2000/svg" xmlns:xlink="http://www.w3.org/1999/xlink" x="0px" y="0px"
	 width="100%" viewBox="0 0 1024 1024" enable-background="new 0 0 1024 1024" xml:space="preserve">
<path fill="#000000" opacity="1.000000" stroke="none" 
	d="
M339.772705,563.653320 
	C333.208282,581.888916 332.325317,580.397766 315.453552,580.246460 
	C311.716370,580.212952 307.866119,580.975525 304.275421,579.508972 
	C303.453613,576.946228 304.866913,575.080933 305.641266,573.141602 
	C329.958038,512.240051 354.311249,451.353027 378.659821,390.464172 
	C381.316864,383.819641 384.242249,377.266510 386.538727,370.499786 
	C387.865051,366.591797 390.021698,365.437347 393.914764,365.616730 
	C399.898315,365.892365 405.933838,366.059479 411.890839,365.576538 
	C416.888824,365.171356 419.324829,367.026520 421.115234,371.592560 
	C431.256989,397.456879 441.662018,423.217896 451.961914,449.020294 
	C468.680878,490.903381 485.390350,532.790283 502.090179,574.680969 
	C502.688507,576.181946 503.848480,577.590332 502.873169,579.984009 
	C494.724884,580.341125 486.297791,580.963867 477.951569,579.644043 
	C473.800171,578.987610 471.887299,575.283813 470.457581,571.596497 
	C464.861298,557.163025 459.121033,542.782593 453.768524,528.259277 
	C452.077148,523.669983 449.697845,521.926819 444.666321,521.972656 
	C416.686249,522.228149 388.702545,522.167358 360.720734,522.057007 
	C357.210266,522.043152 355.376099,523.049622 354.110504,526.491333 
	C349.572906,538.830872 344.684021,551.041199 339.772705,563.653320 
M400.821350,405.200562 
	C388.904846,436.356995 376.988342,467.513458 364.789948,499.406921 
	C391.137421,499.406921 416.340149,499.406921 442.230103,499.406921 
	C429.718170,465.079895 415.548553,431.862335 403.417114,396.675903 
	C402.398529,400.036530 401.728027,402.248627 400.821350,405.200562 
z"/>
<path fill="#000000" opacity="1.000000" stroke="none" 
	d="
M552.969360,517.966248 
	C555.267090,515.877686 558.104797,515.798706 560.961975,515.853943 
	C563.707825,515.906982 564.814087,514.937744 564.361267,511.921173 
	C563.127197,503.699158 562.155518,495.436951 561.134949,487.183868 
	C560.177429,479.440826 563.944153,474.963226 571.688049,474.841949 
	C579.515198,474.719299 587.347961,474.704010 595.173645,474.865753 
	C598.494568,474.934418 600.674438,473.881500 601.408997,470.542053 
	C602.111877,467.346832 602.432129,464.497528 598.808289,462.373138 
	C592.234009,458.519226 588.349060,452.041779 589.103882,444.879486 
	C590.411499,432.472260 585.407898,422.989899 578.213806,413.938782 
	C577.697266,413.288879 577.270813,412.566681 576.809814,411.873260 
	C572.477905,405.358246 572.924133,404.356781 580.476196,403.463135 
	C581.256165,403.370819 582.001282,402.983856 583.000916,402.655243 
	C582.115906,398.641174 579.467468,395.739166 577.954468,392.310120 
	C577.217346,390.639465 576.134949,389.008209 577.508911,387.186218 
	C578.829041,385.435608 580.729309,385.640472 582.545776,385.900116 
	C596.541626,387.900787 610.593994,389.592682 624.505676,392.071320 
	C636.915527,394.282349 645.691284,404.733643 646.191162,417.374420 
	C646.566040,426.853577 646.453979,436.364655 646.197815,445.851807 
	C646.010925,452.775391 642.812866,458.360626 636.880188,462.051971 
	C634.132019,463.761902 632.103699,465.352661 632.999695,469.096985 
	C633.449829,470.978180 632.461792,472.779846 630.220032,473.127258 
	C628.219849,473.437164 626.812622,472.133392 626.563721,470.449402 
	C625.916687,466.070343 622.974487,465.880463 619.607544,466.078491 
	C618.445801,466.146820 617.276184,466.077942 616.110168,466.076508 
	C608.753723,466.067383 608.588318,466.231995 608.122681,474.053986 
	C609.701660,475.357086 611.607727,474.809326 613.370056,474.813904 
	C629.527283,474.855988 645.684875,474.795898 661.842041,474.851746 
	C670.976440,474.883331 674.481628,478.832458 673.426086,487.936371 
	C673.129639,490.493683 674.078491,492.452728 675.342468,494.449341 
	C680.060730,501.902527 684.591309,509.480804 689.506165,516.801453 
	C694.589966,524.373596 697.895813,532.028564 692.036926,541.905945 
	C698.359497,541.905945 703.597229,541.892822 708.834839,541.913513 
	C710.498352,541.920105 712.176819,541.895447 713.820557,542.104736 
	C715.582886,542.329041 717.062744,543.158691 717.154297,545.198608 
	C717.245789,547.235840 715.896179,548.230286 714.111877,548.532898 
	C712.481812,548.809326 710.803345,548.901062 709.146179,548.901428 
	C647.846436,548.914978 586.546631,548.908386 525.246887,548.904297 
	C524.913757,548.904297 524.578735,548.923523 524.247742,548.895935 
	C521.514160,548.668274 517.682068,549.334290 517.702759,545.377075 
	C517.723572,541.403442 521.600830,542.025330 524.296082,541.963440 
	C530.088745,541.830383 535.886536,541.922546 541.392517,541.922546 
	C542.421814,539.842285 541.230225,538.818787 540.782654,537.642151 
	C539.037476,533.053955 538.845459,528.386169 541.243896,524.108521 
	C544.822876,517.725098 548.811462,511.570251 552.670532,505.345856 
	C553.901306,503.360596 555.582031,501.740723 557.968811,503.391449 
	C560.041016,504.824585 559.365295,506.883148 558.279541,508.737000 
	C556.597961,511.608185 554.902649,514.471252 552.855835,517.880493 
	C550.887024,520.928406 549.104431,523.341980 547.702576,525.959412 
	C545.343689,530.363831 545.853943,534.658752 549.135681,538.417847 
	C551.802734,541.472778 562.654297,543.749329 565.991760,541.529907 
	C569.823303,538.981873 566.199585,535.147217 566.739258,531.932556 
	C566.846252,531.295044 566.704834,530.609497 566.638245,529.950134 
	C565.973389,523.370667 565.697937,523.096680 559.182373,522.969971 
	C555.791992,522.904114 552.659180,522.592834 552.969360,517.966248 
M630.104126,401.275726 
	C624.801514,398.040649 618.748108,397.766388 612.845032,396.904144 
	C604.510803,395.686737 596.189331,394.337952 587.084778,393.864929 
	C588.535339,398.699615 591.402954,402.030273 593.228394,405.858612 
	C593.989136,407.453949 594.524414,408.970703 593.172852,410.477966 
	C591.835327,411.969543 590.320923,411.870483 588.663879,410.979462 
	C587.520691,410.364685 586.280701,409.662048 585.084595,411.116058 
	C585.192383,411.581055 585.152954,412.182983 585.433716,412.509583 
	C593.401306,421.777039 596.298401,432.289154 595.713257,444.633362 
	C595.278564,453.802551 601.628113,458.703308 610.834351,458.939270 
	C615.493835,459.058685 620.161926,459.082947 624.820435,458.950073 
	C634.028809,458.687439 639.568420,452.994446 639.666077,443.705750 
	C639.748352,435.880371 639.724487,428.053162 639.670471,420.227264 
	C639.618103,412.650848 637.100952,406.217346 630.104126,401.275726 
M676.179810,522.976379 
	C668.904419,522.978333 668.749023,523.125183 668.278748,530.441284 
	C668.225525,531.269592 668.254395,532.113403 668.103455,532.923645 
	C666.405701,542.038208 665.878357,542.050049 676.891846,541.873047 
	C677.057739,541.870422 677.223694,541.861572 677.389343,541.851196 
	C686.949524,541.248779 691.391052,533.186218 686.587646,524.872192 
	C683.684143,519.846680 680.493103,514.984009 677.334839,510.110657 
	C675.789368,507.726044 674.745605,504.898254 671.833191,502.795807 
	C671.577881,504.205566 671.289185,504.986481 671.323853,505.752777 
	C671.452393,508.589142 669.457031,511.421692 670.594177,514.075500 
	C672.036682,517.441772 675.686890,515.213074 678.194763,516.213379 
	C680.050110,516.953430 681.681396,517.758423 681.468628,519.954468 
	C681.218689,522.534668 679.061523,522.779114 676.179810,522.976379 
M622.121643,508.339813 
	C619.585938,506.179871 616.840210,505.588593 613.867798,507.369537 
	C610.488281,509.394409 609.333069,513.697266 611.241699,516.909424 
	C613.200623,520.206299 617.590942,521.391052 620.755249,519.476685 
	C624.727173,517.073730 625.332214,513.654053 622.121643,508.339813 
z"/>
<path fill="#000000" opacity="1.000000" stroke="none" 
	d="
M259.077667,365.681274 
	C264.727753,365.682190 269.908478,365.954559 275.047058,365.605591 
	C279.963440,365.271729 281.288940,367.267517 281.269287,371.953827 
	C281.121368,407.256805 281.237579,442.560730 281.165283,477.864197 
	C281.131561,494.325775 281.760651,510.798309 279.230499,527.194092 
	C274.946747,554.953430 257.583313,574.985779 231.590927,580.678955 
	C216.594528,583.963684 201.496460,582.988647 186.547684,579.520569 
	C183.791779,578.881226 182.496826,577.591675 182.779617,574.717957 
	C183.219528,570.247986 183.348221,565.737366 183.995804,561.300476 
	C184.775162,555.960876 188.177765,554.008911 194.460022,555.171875 
	C201.152725,556.410950 207.730576,557.580994 214.687088,557.113098 
	C236.647888,555.635742 246.096558,542.095093 249.671356,523.115784 
	C250.976700,516.185364 250.838531,509.204865 250.845001,502.228577 
	C250.884811,459.264862 250.861923,416.301056 250.874908,373.337280 
	C250.877213,365.714569 250.909729,365.714569 259.077667,365.681274 
z"/>
<path fill="#000000" opacity="1.000000" stroke="none" 
	d="
M673.652466,381.933655 
	C688.078857,381.817017 702.073853,381.613953 716.063843,381.793457 
	C723.786743,381.892517 729.408508,386.935699 730.270325,394.633698 
	C731.327576,404.076965 730.848145,413.615417 730.080200,423.047028 
	C729.514160,429.998474 722.790894,434.764496 714.400818,435.068115 
	C708.410522,435.284882 702.399475,435.296509 696.411072,435.060913 
	C692.895203,434.922546 690.378296,436.141235 688.195740,438.771637 
	C685.753479,441.715057 683.107239,444.490723 680.516357,447.308624 
	C679.357849,448.568665 678.032532,449.673004 676.158813,449.022064 
	C674.049988,448.289398 673.797974,446.431641 673.731628,444.539215 
	C673.696594,443.540527 673.583923,442.522919 673.720459,441.543671 
	C674.311890,437.300629 672.967712,434.497894 668.849243,432.454437 
	C664.212708,430.153931 661.945618,425.695679 661.815918,420.546906 
	C661.610413,412.388092 661.454956,404.209106 661.802307,396.060944 
	C662.111694,388.801300 666.160950,384.051178 673.652466,381.933655 
M708.997009,411.549500 
	C708.650391,411.905609 708.266174,412.232605 707.963989,412.623138 
	C707.016174,413.848175 704.895874,414.952362 706.411133,416.732880 
	C708.171509,418.801392 709.709045,416.737518 711.040894,415.724457 
	C719.268066,409.466309 719.304810,408.372162 711.805969,401.231018 
	C711.446106,400.888367 711.117920,400.503265 710.721741,400.209717 
	C709.448425,399.266388 708.136108,397.512360 706.523254,399.388153 
	C705.054077,401.096954 706.589905,402.423004 707.685852,403.648468 
	C708.347412,404.388367 709.033691,405.118652 709.786804,405.761932 
	C712.060730,407.704163 711.457214,409.424927 708.997009,411.549500 
M675.294922,406.524689 
	C674.222351,412.313538 679.985229,413.288391 682.456177,416.572693 
	C683.261169,417.642792 684.737610,418.100342 685.912903,416.801483 
	C687.125122,415.461914 686.315125,414.169037 685.261230,413.384949 
	C680.770874,410.044403 679.715210,406.740387 684.980774,403.181885 
	C685.241882,403.005463 685.436279,402.697479 685.599182,402.414703 
	C686.202209,401.368256 686.657837,400.305420 685.543640,399.287354 
	C684.465881,398.302582 683.375793,398.568756 682.450928,399.441162 
	C680.169495,401.593170 677.952637,403.813660 675.294922,406.524689 
M691.401672,417.087585 
	C692.031067,417.179474 693.022522,417.574097 693.236328,417.318420 
	C697.327942,412.426300 699.433044,406.512817 701.532043,400.620544 
	C701.813354,399.830902 701.049255,399.057678 700.218201,398.734741 
	C699.338928,398.393066 698.436218,398.679932 698.063904,399.464813 
	C695.408997,405.061951 691.392151,410.102844 691.401672,417.087585 
z"/>
<path fill="#000000" opacity="1.000000" stroke="none" 
	d="
M542.333252,443.331726 
	C542.178833,442.626190 542.090881,442.301910 542.085938,441.976410 
	C542.050598,439.649841 542.042053,437.292969 544.183044,435.736359 
	C545.268188,434.947296 546.426819,435.247284 547.312256,436.151306 
	C549.257202,438.137207 549.155151,440.624878 548.742981,443.096527 
	C548.463684,444.771637 547.830383,446.377594 545.827881,446.595306 
	C543.781738,446.817749 542.944092,445.410614 542.333252,443.331726 
z"/>
<path fill="#000000" opacity="1.000000" stroke="none" 
	d="
M547.167175,417.129547 
	C549.218262,419.475098 549.244812,421.957123 548.814453,424.460052 
	C548.519409,426.175934 547.696960,427.793030 545.745056,427.911285 
	C543.432434,428.051361 542.730774,426.196777 542.272644,424.355835 
	C541.185364,419.986786 543.037354,417.014130 547.167175,417.129547 
z"/>
<path fill="#000000" opacity="1.000000" stroke="none" 
	d="
M537.230591,428.284363 
	C539.877869,428.210022 541.512451,429.175995 541.726257,431.547974 
	C541.854614,432.972961 540.900757,433.997162 539.505249,434.485016 
	C537.381897,435.227264 535.448120,434.950928 534.424377,432.816803 
	C533.276611,430.424225 534.758118,429.142181 537.230591,428.284363 
z"/>
<path fill="#000000" opacity="1.000000" stroke="none" 
	d="
M552.313843,428.241669 
	C554.921997,428.149292 556.568359,429.037415 556.941101,431.381042 
	C557.138245,432.620697 556.369751,433.581512 555.290527,434.186310 
	C553.312866,435.294647 551.340759,435.218445 550.013184,433.320618 
	C548.333496,430.919373 549.646362,429.350861 552.313843,428.241669 
z"/>
<path fill="#000000" opacity="1.000000" stroke="none" 
	d="
M653.981934,562.892944 
	C652.375000,565.433044 650.523254,566.088440 648.626099,563.966492 
	C647.350647,562.539856 647.527588,560.643738 649.265747,559.734680 
	C652.011658,558.298340 653.576294,559.654907 653.981934,562.892944 
z"/>
<path fill="#000000" opacity="1.000000" stroke="none" 
	d="
M668.661255,559.311523 
	C670.846924,560.489563 671.679993,561.909851 670.414185,563.860596 
	C669.752258,564.880676 668.647339,565.293152 667.413452,565.083984 
	C665.942383,564.834534 664.994751,563.869751 664.948486,562.449463 
	C664.878235,560.293884 666.089050,559.159912 668.661255,559.311523 
z"/>
<path fill="#000000" opacity="1.000000" stroke="none" 
	d="
M685.654724,565.058044 
	C683.004395,565.236816 681.799438,564.152588 681.884705,561.880859 
	C681.932983,560.594177 682.746399,559.737610 683.978760,559.379822 
	C685.465942,558.947998 686.625916,559.554138 687.366577,560.805054 
	C688.440247,562.618469 687.687622,563.956238 685.654724,565.058044 
z"/>
<path fill="#000000" opacity="1.000000" stroke="none" 
	d="
M615.722839,511.758942 
	C618.198853,510.527557 619.511475,511.344452 619.664978,513.634033 
	C619.747742,514.868958 618.714172,515.916748 617.498108,515.794373 
	C615.222839,515.565552 614.518494,514.147644 615.722839,511.758942 
z"/>
</svg>