<svg version="1.1" id="Layer_1" xmlns="http://www.w3.org/2000/svg" xmlns:xlink="http://www.w3.org/1999/xlink" x="0px" y="0px"
	 width="100%" viewBox="0 0 1024 1024" enable-background="new 0 0 1024 1024" xml:space="preserve">
<path fill="#000000" opacity="1.000000" stroke="none" 
	d="
M321.999939,715.340088 
	C290.336090,715.340210 259.172241,715.340942 228.008423,715.336609 
	C226.342331,715.336365 224.664688,715.410095 223.012360,715.247192 
	C218.631531,714.815186 215.259293,711.574158 215.267105,707.509888 
	C215.275482,703.151733 217.642609,700.281372 221.834290,699.195129 
	C223.572357,698.744690 225.464981,698.785950 227.287628,698.782837 
	C244.619339,698.753357 261.951111,698.762207 279.282867,698.760132 
	C281.078644,698.759888 282.874420,698.760132 285.843384,698.760132 
	C280.953033,691.431335 277.850891,684.394531 275.647949,676.919434 
	C274.798370,674.036621 271.658966,675.096924 269.476135,675.093628 
	C232.812912,675.038757 196.149551,675.064880 159.486282,675.026550 
	C157.037720,675.023987 154.488342,675.488831 152.092728,674.198792 
	C151.308380,671.832581 153.182358,670.471741 154.220810,668.944702 
	C165.744980,651.998413 177.263275,635.046631 188.998688,618.246887 
	C191.569275,614.566895 192.235214,611.962769 189.290253,607.831726 
	C177.396072,591.146973 165.982208,574.119324 154.440643,557.184509 
	C153.356567,555.593872 151.658112,554.245911 151.774078,551.891418 
	C153.535339,550.064148 155.829559,550.876038 157.858261,550.874084 
	C214.019745,550.819641 270.181305,550.825867 326.342834,550.812866 
	C333.971588,550.811096 333.971588,550.788879 333.729309,543.090698 
	C333.248871,527.827454 342.948090,517.703308 358.133881,517.688171 
	C382.798279,517.663513 407.463226,517.599365 432.126678,517.753601 
	C436.011780,517.777832 438.168518,516.482971 439.881287,513.013000 
	C443.346405,505.992920 444.751190,498.546051 445.575684,490.892731 
	C445.826019,488.569092 444.920380,487.278198 442.807892,486.230682 
	C419.478394,474.662079 408.576141,455.656830 409.056458,429.778381 
	C409.245087,419.616394 408.962952,409.446136 409.107117,399.282654 
	C409.161713,395.433533 408.112793,392.224945 405.939758,389.048889 
	C394.461090,372.271942 383.155365,355.376770 371.740234,338.556152 
	C369.497864,335.251892 367.650787,331.967926 369.839325,327.938995 
	C371.948669,324.055725 375.641449,323.158997 379.607544,323.073273 
	C384.709473,322.962982 389.815613,323.046417 394.685913,323.046417 
	C395.604462,320.116913 394.153412,318.691559 393.313416,317.172668 
	C388.153412,307.842499 382.951477,298.534576 377.660278,289.278290 
	C375.698517,285.846466 374.872070,282.523743 377.264404,278.986542 
	C379.556885,275.596954 382.858002,275.178406 386.551147,275.698029 
	C411.090149,279.150452 435.634949,282.561768 460.172577,286.023834 
	C475.648468,288.207367 491.237457,289.826935 506.560547,292.806213 
	C538.216064,298.961090 562.821716,328.713867 563.235840,360.905365 
	C563.550903,385.398987 563.514465,409.901733 563.267395,434.396698 
	C563.037109,457.236633 552.454102,474.066833 532.448608,484.979034 
	C525.663879,488.679810 525.241760,489.392517 526.472595,497.036377 
	C526.815613,499.166656 527.310730,501.297760 527.385132,503.440643 
	C527.540405,507.914307 524.842468,511.332062 520.655334,511.995758 
	C516.167114,512.707153 513.275269,510.396851 511.709259,506.456543 
	C510.351715,503.040771 509.921936,499.370667 509.669647,495.707642 
	C509.465424,492.742828 508.177185,491.261322 504.941376,491.287811 
	C491.943481,491.394318 478.943970,491.363373 465.945618,491.287170 
	C463.497772,491.272858 462.165863,492.203766 461.898865,494.614410 
	C461.076813,502.037323 459.330292,509.284424 457.327301,516.277649 
	C459.483795,518.452637 461.776367,517.673523 463.819244,517.675415 
	C513.314697,517.721008 562.810181,517.698975 612.305664,517.713257 
	C626.632996,517.717407 635.634460,525.318604 637.855713,539.245728 
	C638.062805,540.544434 638.118591,541.908813 637.979126,543.214355 
	C637.172363,550.765808 637.145386,550.778442 644.879944,550.779480 
	C719.206482,550.789429 793.533081,550.787354 867.859619,550.832397 
	C869.930725,550.833618 872.173157,550.168701 874.084290,551.634521 
	C874.649353,553.864014 872.974731,555.099121 872.000488,556.528564 
	C860.365601,573.601135 848.773193,590.704529 836.920349,607.625244 
	C834.330505,611.322571 834.150330,614.021973 836.802368,617.819153 
	C848.537048,634.621094 859.982361,651.625671 871.479126,668.592957 
	C872.557312,670.184326 874.211609,671.559692 874.137451,673.859009 
	C871.961487,675.667786 869.359253,675.003296 866.953735,675.005432 
	C812.625366,675.053162 758.296814,675.123657 703.969055,674.948303 
	C698.382019,674.930298 694.987732,675.841187 693.959717,682.119995 
	C692.995605,688.007935 689.358643,693.007446 686.246521,698.154907 
	C688.451050,699.343628 690.475525,698.906189 692.414246,698.911072 
	C709.745850,698.954529 727.077637,698.933228 744.409363,698.963318 
	C746.234192,698.966492 748.104675,698.961182 749.874146,699.336426 
	C754.008057,700.213074 756.244751,703.008728 756.233276,707.149414 
	C756.221069,711.536011 753.732178,714.326721 749.436829,715.156128 
	C747.502075,715.529785 745.451965,715.348206 743.454224,715.348267 
	C603.136108,715.349915 462.818024,715.344543 321.999939,715.340088 
M773.489563,630.791565 
	C775.151428,629.820190 775.290039,627.136169 777.698975,626.943115 
	C780.623657,638.719666 782.008728,639.773804 789.316101,634.796692 
	C783.167236,637.087280 783.314758,633.502014 783.729858,629.926514 
	C783.977844,627.790405 784.529114,625.676697 785.088623,623.591675 
	C787.331116,615.235229 789.667908,606.903931 791.877441,598.538940 
	C792.339600,596.789185 793.971252,594.441467 791.044617,593.459595 
	C788.006042,592.440247 786.972961,594.686218 786.348083,597.162231 
	C786.081787,598.217468 786.124939,599.597412 784.458618,599.587402 
	C779.225525,592.066101 776.762878,590.946106 770.325439,593.146729 
	C758.107727,597.323303 748.277893,619.616394 753.429077,631.466125 
	C756.301575,638.073914 763.187439,639.656982 769.448059,634.691772 
	C770.616638,633.533936 771.785217,632.376099 773.489563,630.791565 
M712.483582,636.901794 
	C715.906433,636.215881 717.060730,632.657959 720.361267,630.730408 
	C722.011353,629.783997 722.144531,627.030273 724.645508,627.039551 
	C727.205811,638.254700 727.929749,638.922302 735.436401,635.772766 
	C730.438782,635.836792 729.835876,633.349609 730.588623,629.984802 
	C731.204590,627.231689 731.674744,624.441284 732.398926,621.717773 
	C736.925293,604.694397 741.544250,587.695557 746.042175,570.664734 
	C747.347473,565.722229 746.744385,565.207642 741.581665,565.613403 
	C738.313477,565.870239 735.031128,565.947632 731.669678,566.109619 
	C732.364868,567.034302 733.261597,566.663330 734.027466,566.693420 
	C740.578857,566.951355 740.983154,567.470947 739.355164,573.765320 
	C737.483887,581.001038 735.658508,588.249512 733.686279,595.457703 
	C733.292847,596.895569 733.620056,598.927246 731.475403,599.468506 
	C725.392456,591.901733 723.244751,590.968872 716.800415,593.494995 
	C714.970825,594.212219 713.013000,595.136108 711.686340,596.515564 
	C703.143494,605.398438 698.013611,615.753357 699.390137,628.419373 
	C700.118408,635.120300 705.032410,638.333008 712.483582,636.901794 
M401.639801,298.082581 
	C408.142426,309.706238 414.693817,321.303040 421.120239,332.968658 
	C423.258087,336.849365 422.494293,340.539978 419.024048,343.220978 
	C415.644440,345.831940 411.764771,346.228882 408.595337,342.973633 
	C404.061371,338.316925 399.021515,340.621582 392.971405,340.465271 
	C402.896729,355.192535 412.013336,368.901550 421.350403,382.458740 
	C424.003265,386.310608 425.503418,390.168823 425.423462,394.945007 
	C425.203339,408.098511 425.264038,421.258728 425.364807,434.415131 
	C425.536072,456.778076 443.557983,474.728912 465.765228,474.765076 
	C478.755859,474.786224 491.763916,474.351471 504.733368,474.878998 
	C527.723633,475.814148 547.337341,456.733307 546.877747,433.228638 
	C546.431763,410.420319 546.842224,387.596344 546.745789,364.779785 
	C546.620667,335.175598 527.362976,312.715240 498.025543,308.029907 
	C485.884064,306.090851 473.684784,304.510559 461.505341,302.813141 
	C442.241913,300.128418 422.968994,297.511047 403.711487,294.784882 
	C401.216583,294.431732 399.973633,294.663208 401.639801,298.082581 
M293.687347,679.098633 
	C297.214233,688.698547 304.075684,694.697998 313.688477,697.846741 
	C316.953400,698.916199 320.260101,698.746094 323.577087,698.755188 
	C333.013672,698.781189 342.450409,698.764343 352.466492,698.764343 
	C351.699097,691.405518 351.080475,684.837158 350.296173,678.288635 
	C350.012054,675.916260 348.305084,675.062500 345.996460,675.066528 
	C329.343964,675.095398 312.691315,675.110840 296.038879,675.068176 
	C293.506287,675.061707 292.718872,676.084229 293.687347,679.098633 
M620.376648,685.784424 
	C620.043030,688.253174 619.741943,690.726807 619.368347,693.189453 
	C618.790955,696.996521 619.706238,699.131897 624.245361,698.977600 
	C633.392334,698.666748 642.578125,699.164307 651.701965,698.593689 
	C662.835266,697.897461 671.129089,692.194275 676.255066,682.238098 
	C679.111755,676.689514 678.103394,675.083618 671.932312,675.058838 
	C658.779297,675.005981 645.625854,675.080017 632.472595,675.072144 
	C622.335083,675.066040 622.335083,675.045715 620.376648,685.784424 
M519.477539,636.827209 
	C523.179932,636.827209 526.882324,636.827209 530.584717,636.827209 
	C522.585449,633.177307 522.575012,633.177307 522.580444,624.421936 
	C522.590820,607.760437 522.615417,591.098877 522.631653,574.437378 
	C522.634216,571.829834 522.749756,569.192139 521.107300,566.872620 
	C519.383850,567.339294 518.810791,568.602783 518.089111,569.675964 
	C509.260956,582.804932 500.904999,596.283936 491.480957,608.969604 
	C484.040741,618.984985 480.495453,632.993591 465.761017,636.344421 
	C473.705170,636.344421 481.649292,636.344421 489.593445,636.344421 
	C488.588531,635.251648 487.515808,634.897339 486.414856,634.703613 
	C482.696808,634.049438 481.771484,631.671143 482.835632,628.463867 
	C484.705963,622.826843 488.350281,618.095215 492.198029,613.838013 
	C494.990814,610.748108 499.770294,612.092163 503.697479,612.054810 
	C516.885925,611.929382 514.054749,612.459473 514.214233,622.504028 
	C514.377563,632.792603 514.249512,632.794617 504.749878,636.201172 
	C509.704590,637.474426 514.137817,636.559204 519.477539,636.827209 
M255.059265,578.683838 
	C256.283173,571.582275 257.980072,564.933960 268.022064,566.281860 
	C261.261383,564.296631 240.551880,564.704773 237.551300,566.356934 
	C239.136932,567.224976 240.836121,566.850525 242.465988,566.894775 
	C249.328369,567.080872 249.773361,567.671143 248.010635,574.166687 
	C244.090622,588.611694 240.219238,603.069946 236.293411,617.513367 
	C235.291626,621.199036 234.447571,624.957214 232.351074,628.244202 
	C228.912201,633.635803 223.420319,636.457031 218.569305,635.224182 
	C215.877823,634.540283 213.373001,633.351624 213.121536,630.172546 
	C212.886169,627.197144 215.471237,627.178467 217.469925,626.380798 
	C220.634155,625.117981 222.114487,622.484314 221.240616,619.156433 
	C220.381790,615.885864 217.708847,614.868591 214.577957,615.307434 
	C210.134048,615.930176 207.994827,618.995239 207.340057,623.086670 
	C205.681824,633.448425 213.538345,639.961487 224.858948,637.366516 
	C235.705978,634.880127 241.842087,627.350281 244.746094,617.047668 
	C248.264801,604.564331 251.485092,591.996887 255.059265,578.683838 
M299.669952,599.017456 
	C295.551056,590.366028 284.182678,591.313171 278.369659,595.263916 
	C269.039459,601.605103 263.388184,614.781189 265.453308,625.861877 
	C267.185547,635.156433 273.959259,639.380798 283.083801,636.856995 
	C296.948517,633.022278 305.118042,615.090881 299.669952,599.017456 
M353.867096,655.777039 
	C354.060333,655.319519 354.202057,654.830994 354.455536,654.409729 
	C355.699524,652.342102 356.844421,650.210571 354.819763,648.049927 
	C353.660339,646.812744 352.082397,646.944885 350.651337,647.669250 
	C348.163086,648.928711 347.884888,651.225098 348.059906,653.652954 
	C348.471497,659.362061 354.242584,662.755554 361.320648,661.434082 
	C371.029907,659.621338 376.667572,653.072021 380.029053,644.463379 
	C385.966705,629.257263 389.013794,613.180420 393.544739,597.546631 
	C393.930725,596.214844 394.384766,594.340820 392.442352,593.685242 
	C390.494049,593.027527 389.338013,594.333252 388.581482,595.971924 
	C387.675781,597.933716 387.589539,600.700500 384.279755,599.756287 
	C384.038666,609.900085 380.856171,618.767517 376.640930,627.332458 
	C379.173798,628.443420 379.404633,628.510986 378.980133,629.961365 
	C376.466980,638.547974 374.869049,647.489258 369.275024,654.898315 
	C366.458893,658.628174 362.919373,660.625732 358.176422,660.373352 
	C355.703033,660.241760 354.024750,659.296387 353.867096,655.777039 
M407.381378,634.139160 
	C411.360413,637.163208 412.644714,637.567200 416.884827,637.128601 
	C411.018951,635.227722 408.881317,632.318787 409.086029,626.172729 
	C409.163147,623.858276 409.627533,621.558899 409.851044,619.246460 
	C410.129517,616.365417 411.436768,614.874023 414.547424,614.571289 
	C419.704376,614.069519 424.651276,612.622314 429.059570,609.732788 
	C434.107849,606.423828 436.310425,600.946411 434.399811,596.500610 
	C432.796448,592.769714 427.522278,591.315857 421.592896,592.966675 
	C406.031097,597.299377 397.364990,622.073853 407.381378,634.139160 
M614.402344,618.735229 
	C610.406128,623.505188 613.592407,628.227844 614.634583,632.881165 
	C615.676697,637.534729 617.924072,638.333862 623.258789,635.926880 
	C618.823792,635.253845 618.474243,632.590454 619.247925,629.367615 
	C620.061340,625.978882 620.803711,622.571533 621.693237,619.203003 
	C623.558777,612.138611 625.518494,605.099243 627.398621,598.038635 
	C627.910156,596.117432 627.880493,594.330994 625.419922,593.736877 
	C623.121277,593.181824 622.680786,594.741882 622.112671,596.446960 
	C621.682556,597.737915 621.891113,599.526855 620.308960,600.025330 
	C618.625183,600.137329 619.238525,597.594116 617.585083,598.062866 
	C618.808044,605.049011 616.969666,611.561768 614.402344,618.735229 
M679.368042,636.903381 
	C682.831970,635.524902 684.543335,632.637329 686.145996,629.656799 
	C684.880188,630.517822 684.066956,631.776489 683.050354,632.840942 
	C681.411255,634.557190 679.490662,636.331543 676.986816,634.909546 
	C674.413025,633.447876 675.046265,630.835327 675.866882,628.650208 
	C677.383850,624.610718 679.111938,620.646240 680.865540,616.700928 
	C683.102478,611.668213 685.281311,606.637573 685.043213,600.959473 
	C684.893738,597.393860 684.728149,593.776489 680.412292,592.553406 
	C676.710022,591.504211 672.357605,593.838074 670.078247,598.193970 
	C671.041626,597.571472 671.716370,597.107544 672.417480,596.687561 
	C674.659973,595.344543 677.030151,593.116455 679.597229,595.340088 
	C682.049011,597.463867 680.642151,600.352112 679.686951,602.777771 
	C677.678589,607.877747 675.481323,612.904663 673.297546,617.933716 
	C671.399475,622.304871 670.579895,626.854797 671.242310,631.559387 
	C671.833130,635.755310 673.857422,638.409485 679.368042,636.903381 
M315.925537,633.867676 
	C315.433228,635.724976 316.017059,636.719910 318.067566,636.759949 
	C320.088501,636.799377 321.115662,635.698792 321.614685,633.930725 
	C324.175629,624.856873 328.011810,616.243591 331.527710,607.355042 
	C329.087738,607.281494 328.835907,606.114197 329.288239,604.347046 
	C329.915131,601.897949 329.900665,599.401001 329.216797,596.964233 
	C327.872528,592.174744 324.810242,591.209290 320.427185,594.274048 
	C324.951447,594.319702 325.245514,597.115234 324.427795,600.388916 
	C321.697479,611.320129 318.878723,622.229126 315.925537,633.867676 
M652.774597,611.088440 
	C650.586060,619.357727 648.397461,627.626953 646.227051,635.827576 
	C649.061584,637.149231 650.974548,637.022522 651.819458,634.615417 
	C654.968079,625.646606 658.852234,616.997742 663.932373,607.877136 
	C661.429016,609.175293 661.631226,611.889832 659.256592,611.748047 
	C658.472229,609.685425 659.494019,607.978394 659.824463,606.235840 
	C660.450684,602.932983 660.849609,599.713257 659.799255,596.395020 
	C658.597839,592.599548 656.319580,591.575256 652.059509,593.080933 
	C655.899719,595.535706 655.696655,598.761902 654.991821,602.066406 
	C654.403381,604.825439 653.691711,607.558167 652.774597,611.088440 
M560.269531,619.872742 
	C561.884277,615.871399 563.499023,611.870056 565.255127,607.518372 
	C562.229797,607.560608 562.665039,605.578918 563.187317,603.626587 
	C563.669983,601.822571 563.852478,599.989441 563.370422,598.207214 
	C562.447266,594.793823 561.398254,591.375183 557.343262,592.721436 
	C560.104492,608.435791 550.524841,621.656250 549.773987,636.212830 
	C554.351013,636.698059 554.404358,636.717041 555.616577,633.312805 
	C557.119995,629.090942 558.523865,624.833618 560.269531,619.872742 
M597.970947,598.456543 
	C590.266174,606.526672 587.200012,616.230103 588.038940,627.219482 
	C588.553406,633.958679 590.975281,636.340454 598.468079,637.525696 
	C594.390686,634.781372 593.704163,630.995422 594.035156,626.987305 
	C594.810791,617.594849 597.282837,608.674072 602.125977,600.520325 
	C604.614441,596.330933 607.450806,592.515686 613.291443,593.162964 
	C607.339966,591.865295 602.523743,593.747742 597.970947,598.456543 
M367.301331,595.734863 
	C357.908539,604.541321 353.000183,615.220703 354.233032,628.228638 
	C354.928192,635.563599 360.157043,638.887939 367.013336,636.809021 
	C361.771912,635.948242 359.613556,633.733093 360.041901,628.196716 
	C361.030884,615.413818 364.301971,603.395813 374.499512,592.615417 
	C371.433319,593.878296 369.659302,594.609009 367.301331,595.734863 
M349.607269,600.765137 
	C350.322571,593.991028 348.163696,591.723328 341.919128,593.144531 
	C342.175598,594.625854 343.409332,596.073608 342.378754,597.769348 
	C341.071442,599.920349 340.562775,602.362488 343.160767,603.901245 
	C345.992523,605.578491 347.801910,603.670105 349.607269,600.765137 
M582.721008,601.989990 
	C584.585693,598.253540 584.609497,594.497681 580.392273,592.846313 
	C575.441223,590.907654 577.619812,596.317810 576.104492,598.053101 
	C574.592957,599.783997 574.664490,602.171997 576.671509,603.768188 
	C578.854248,605.504028 580.650330,604.139038 582.721008,601.989990 
z"/>
<path fill="#000000" opacity="1.000000" stroke="none" 
	d="
M717.000000,264.721008 
	C729.161560,264.719635 740.823303,264.668732 752.484558,264.728119 
	C773.835693,264.836823 791.014404,281.667450 791.219360,303.043091 
	C791.431702,325.197876 791.457031,347.358643 791.202515,369.512604 
	C790.962402,390.414551 773.469543,407.317657 752.522888,407.349274 
	C732.531677,407.379425 712.539612,407.463531 692.550049,407.284515 
	C688.649109,407.249603 686.021118,408.581055 683.515137,411.403656 
	C674.116394,421.989868 664.519287,432.399689 655.049683,442.923523 
	C652.196899,446.093933 649.025757,448.477448 644.590149,446.769867 
	C640.060791,445.026123 638.850342,441.086639 638.841553,436.629303 
	C638.825195,428.299652 638.697632,419.967133 638.883423,411.641754 
	C638.959534,408.232208 637.683838,406.728912 634.451111,405.623047 
	C616.178040,399.371979 606.671631,385.743622 606.673218,366.308044 
	C606.674927,345.650452 606.644226,324.992828 606.688599,304.335327 
	C606.737793,281.454041 623.129578,264.875183 646.031067,264.747070 
	C669.520020,264.615692 693.010315,264.720062 717.000000,264.721008 
M729.799683,308.354492 
	C722.883362,311.327881 721.797913,316.110229 726.961060,321.322510 
	C730.823364,325.221527 734.740295,329.073975 738.782410,332.784332 
	C741.168640,334.974731 741.267456,336.643524 738.742188,338.844849 
	C734.608459,342.448456 730.625977,346.237244 726.733521,350.102844 
	C722.953064,353.857208 722.640320,357.494965 725.530823,360.610840 
	C728.440369,363.747314 732.649231,363.568176 736.532654,359.914459 
	C742.952209,353.874664 749.328918,347.786621 755.608826,341.602234 
	C759.992737,337.285004 760.006714,333.940857 755.657715,329.636719 
	C749.393127,323.436890 742.991272,317.375793 736.639771,311.264008 
	C734.933411,309.622040 733.107483,308.196136 729.799683,308.354492 
M651.144958,350.352539 
	C654.506714,353.571625 657.781311,356.888489 661.253296,359.983948 
	C665.207275,363.509033 669.046936,363.703339 671.831360,360.799133 
	C674.773071,357.730896 674.449524,353.372223 670.793884,349.790710 
	C666.995300,346.069122 663.117249,342.419373 659.123169,338.909790 
	C656.482422,336.589386 656.561646,334.711945 659.125916,332.391266 
	C663.436462,328.490204 667.736084,324.549957 671.720459,320.324524 
	C674.546814,317.327148 674.979492,313.630859 671.872803,310.500610 
	C668.805115,307.409576 665.292969,307.556549 662.126282,310.544495 
	C655.234985,317.046875 648.339539,323.548737 641.603699,330.210510 
	C638.065308,333.710052 638.189453,337.525787 641.703369,341.163361 
	C644.589600,344.151062 647.648682,346.971771 651.144958,350.352539 
M689.416138,362.779541 
	C693.086548,362.585022 694.954590,360.199768 696.381714,357.173218 
	C702.342957,344.531128 708.373718,331.921753 714.308960,319.267548 
	C716.508484,314.577728 715.498108,311.067780 711.619934,309.100952 
	C707.792664,307.159912 704.304626,308.535950 701.995056,313.264740 
	C695.715759,326.121826 689.491821,339.007141 683.391479,351.949890 
	C680.801208,357.445374 682.615479,360.897614 689.416138,362.779541 
z"/>
<path fill="#000000" opacity="1.000000" stroke="none" 
	d="
M283.557281,434.873657 
	C282.202972,428.724518 282.645020,422.888733 283.002014,417.113617 
	C283.291016,412.438080 287.029480,409.425842 291.353577,409.554962 
	C295.419830,409.676361 298.803925,412.701324 299.148621,417.188049 
	C299.491577,421.652679 299.292023,426.160553 299.291718,430.649475 
	C299.291412,435.088715 297.454498,438.533020 293.123688,439.884644 
	C288.771851,441.242828 285.799164,438.957520 283.557281,434.873657 
z"/>
<path fill="#000000" opacity="1.000000" stroke="none" 
	d="
M291.758423,358.195160 
	C297.219910,359.679657 299.341217,363.220825 299.315765,368.309906 
	C299.296600,372.141174 299.403290,375.975769 299.279510,379.803223 
	C299.104980,385.199615 295.379425,389.212433 290.837433,389.099152 
	C286.485077,388.990601 283.081482,385.176239 282.854889,379.850220 
	C282.685120,375.859039 282.700470,371.853058 282.810059,367.858551 
	C282.972107,361.949585 285.249908,359.452759 291.758423,358.195160 
z"/>
<path fill="#000000" opacity="1.000000" stroke="none" 
	d="
M303.147583,394.181335 
	C306.790710,390.316010 311.100739,390.263092 315.408417,391.155182 
	C320.344360,392.177368 323.168457,396.868866 321.847351,401.186493 
	C320.201324,406.565948 313.071045,409.170135 306.757324,406.716980 
	C302.839233,405.194672 298.955719,399.527374 303.147583,394.181335 
z"/>
<path fill="#000000" opacity="1.000000" stroke="none" 
	d="
M277.947235,405.132263 
	C274.292816,407.999634 270.386200,407.656067 266.693573,406.936859 
	C262.732269,406.165344 260.294159,403.237732 260.138977,399.213226 
	C259.990509,395.363190 262.210449,392.645538 265.907898,391.440948 
	C269.128998,390.391571 272.464355,390.315491 275.636505,391.571930 
	C281.243805,393.792877 282.303589,399.432556 277.947235,405.132263 
z"/>
<path fill="#000000" opacity="1.000000" stroke="none" 
	d="
M614.577332,750.746887 
	C616.354736,746.291443 619.578247,744.434204 623.760742,744.963257 
	C627.120605,745.388306 629.476013,747.674561 630.187500,751.092346 
	C630.973083,754.866028 629.764709,757.991821 626.383911,760.070374 
	C623.719971,761.708252 620.984924,761.638794 618.385193,759.986206 
	C615.149170,757.929077 613.558167,755.050537 614.577332,750.746887 
z"/>
<path fill="#000000" opacity="1.000000" stroke="none" 
	d="
M671.876709,745.758423 
	C676.850342,749.989929 677.569153,754.665833 674.154907,758.370422 
	C671.047791,761.741821 666.388794,762.025208 663.004883,758.929504 
	C659.914429,756.102112 659.153748,752.537415 661.237854,748.982605 
	C663.520752,745.088623 667.104187,743.747314 671.876709,745.758423 
z"/>
<path fill="#000000" opacity="1.000000" stroke="none" 
	d="
M772.953857,631.218323 
	C771.785217,632.376099 770.616638,633.533936 768.806641,634.974731 
	C762.330750,637.192139 759.323120,636.284302 759.021729,631.649902 
	C758.170959,618.567627 761.580017,606.607544 770.004150,596.339050 
	C771.955017,593.961060 774.604126,592.997009 777.627502,594.062500 
	C780.656006,595.129822 781.924927,597.664856 782.235779,600.627563 
	C782.548584,603.609741 782.312195,606.582397 781.707947,609.561218 
	C780.130310,617.338135 776.641113,624.311218 772.953857,631.218323 
z"/>
<path fill="#000000" opacity="1.000000" stroke="none" 
	d="
M712.130615,636.994019 
	C707.186646,636.304077 705.558228,633.404175 705.594055,628.965881 
	C705.682190,618.052551 708.686096,608.038025 714.580688,598.900696 
	C716.852539,595.379150 719.861633,592.423096 724.427917,593.988159 
	C729.257202,595.643372 729.682129,600.040283 729.235352,604.344727 
	C728.260010,613.741577 724.827515,622.322021 719.939209,630.765259 
	C717.060730,632.657959 715.906433,636.215881 712.130615,636.994019 
z"/>
<path fill="#000000" opacity="1.000000" stroke="none" 
	d="
M511.603516,609.981079 
	C506.235229,610.024902 501.277740,610.739685 494.931458,609.140320 
	C501.056183,600.128784 506.748932,591.752869 512.441650,583.376953 
	C512.944763,583.548218 513.447815,583.719482 513.950928,583.890747 
	C514.421692,592.027527 514.555420,600.177124 513.807129,608.333191 
	C513.754944,608.902039 512.665100,609.375671 511.603516,609.981079 
z"/>
<path fill="#000000" opacity="1.000000" stroke="none" 
	d="
M287.452942,630.333252 
	C286.312500,631.805908 285.520172,633.124329 284.429657,634.114319 
	C279.592255,638.505554 272.597565,636.520142 272.021759,630.107178 
	C270.914856,617.779419 274.183350,606.403320 281.980347,596.606445 
	C284.244690,593.761292 287.616028,592.752625 290.984711,594.140564 
	C294.243591,595.483337 295.197113,598.702576 295.266083,602.002441 
	C295.476593,612.074341 292.540680,621.321167 287.452942,630.333252 
z"/>
<path fill="#000000" opacity="1.000000" stroke="none" 
	d="
M428.436615,607.271057 
	C424.941681,611.428955 420.311157,612.372009 415.731750,613.203125 
	C412.794861,613.736145 411.280090,612.537903 412.239288,609.213867 
	C413.601868,604.492126 415.469849,600.058472 419.255585,596.773865 
	C421.971619,594.417236 425.208191,592.250244 428.681122,594.741394 
	C431.801361,596.979553 431.467560,600.551392 430.260040,603.887756 
	C429.869141,604.967834 429.216827,605.953247 428.436615,607.271057 
M423.589172,606.108276 
	C423.810730,603.947876 422.976776,602.751831 420.778076,603.686096 
	C419.221954,604.347351 418.634552,606.088379 419.522156,607.441650 
	C421.008759,609.708191 422.220917,607.939941 423.589172,606.108276 
z"/>
</svg>